<svg width="100%" height="100%" viewBox="0 0 70 70" fill="none" xmlns="http://www.w3.org/2000/svg">
<path fill-rule="evenodd" clip-rule="evenodd" d="M33.3717 7.08453C33.2456 7.68758 33.8172 7.79492 34.4202 7.90644L34.4226 7.9069C35.0809 8.03042 35.7743 8.16055 35.6181 8.95925C35.3424 10.3719 35.5202 11.8294 36.1293 13.1472C36.7385 14.4651 37.7512 15.5843 39.0402 16.3632C40.3285 17.1421 41.8347 17.5458 43.3679 17.5232C44.9012 17.5006 46.3932 17.0527 47.6551 16.2362C48.9164 15.4196 49.891 14.2712 50.4558 12.936C51.02 11.6008 51.1492 10.1388 50.8262 8.73503C50.5032 7.33122 49.7433 6.04855 48.642 5.04926C47.5401 4.05004 46.1471 3.379 44.6385 3.12115C42.1436 2.69449 37.5605 3.28124 33.7569 6.72385C33.6277 6.8405 33.4991 6.96131 33.3717 7.08453ZM42.757 6.6005C42.9822 6.7992 43.2769 6.91361 43.5851 6.92208L43.6085 6.92386C43.8017 6.93775 43.9943 6.9643 44.1837 7.0033C44.6169 7.08453 45.0292 7.24555 45.3959 7.47696C45.7484 7.72169 46.0468 8.02915 46.2738 8.38206C46.3545 8.50316 46.4283 8.62829 46.4948 8.75687L46.5421 8.85492L46.5501 8.8722L46.5471 8.86569C46.6584 9.13772 46.8718 9.36165 47.147 9.49513C47.422 9.62855 47.74 9.66225 48.0402 9.58977C48.1805 9.55262 48.311 9.48781 48.423 9.39961C48.5349 9.31147 48.626 9.20196 48.6894 9.07838C48.7527 8.95476 48.7878 8.81989 48.7922 8.68273C48.7959 8.54556 48.7693 8.40914 48.7127 8.28263L47.6299 8.57418L48.7115 8.28033L48.7096 8.27612L48.7066 8.26961L48.6998 8.25043C48.5663 7.9527 48.407 7.66581 48.2236 7.39262C47.9099 6.92438 47.4017 6.30007 46.6517 5.80319C45.8986 5.30366 45.095 5.0628 44.5142 4.94239C44.2724 4.89181 44.0275 4.85472 43.7808 4.83127C43.683 4.82079 43.5851 4.81353 43.4867 4.80956L43.4652 4.81007L43.4565 4.8107L43.4504 4.80967C43.3046 4.80195 43.1587 4.82349 43.0227 4.87286C42.8862 4.92223 42.7625 4.99834 42.6598 5.09604C42.557 5.19381 42.4777 5.31093 42.4265 5.43974C42.3755 5.56849 42.3546 5.70595 42.3638 5.84301C42.3927 6.13237 42.5324 6.40176 42.757 6.6005Z" fill="black"/>
<path d="M37.5992 62.5004H24V65.3077H37.5992V62.5004Z" fill="black"/>
<path d="M27.1077 55.4634L28.3032 57.2176V62.5004H33.2973V57.2176L34.4928 55.4634H27.1077Z" fill="black"/>
<path d="M26.6518 55.4634H34.9486C35.6808 55.4634 36.3434 55.1852 36.8233 54.7364C37.3033 54.2871 37.5998 53.6667 37.5998 52.9811V25.0698C37.5998 23.699 36.4129 22.5877 34.9493 22.5876L31.4416 22.5877V10.0766C31.4416 9.74468 31.1549 9.47587 30.8005 9.47594C30.6233 9.47594 30.4627 9.54317 30.3464 9.65182C30.2308 9.76053 30.1588 9.91071 30.1588 10.0766V22.5876H26.6518C25.9196 22.5876 25.257 22.8655 24.7771 23.3146C24.2978 23.7638 24.0006 24.3843 24.0006 25.0697V29.4035V30.6049V52.9811C24.0006 54.3521 25.1874 55.4634 26.6518 55.4634ZM25.284 52.9811V51.4929L30.7993 51.4928V50.2914L25.284 50.2915V48.3811L27.3999 48.381V47.1796L25.284 47.1797V45.56H30.7993V44.3586L25.284 44.3587V42.4557L27.3999 42.4555V41.2541L25.284 41.2542V39.6276L30.7993 39.6275V38.4261L25.284 38.4262V36.5303H27.3999V35.3288L25.284 35.3289V33.4335L30.7993 33.4334V32.232H25.284V30.6051L27.3999 30.6052V29.4038L25.284 29.4037V27.7623H30.7993V26.5609L25.284 26.561V25.0701C25.284 24.728 25.4262 24.4064 25.6846 24.1645C25.943 23.9226 26.2863 23.7895 26.6518 23.7894H34.9493C35.703 23.7894 36.3164 24.3639 36.3164 25.0701V52.9816C36.3164 53.3233 36.1743 53.6454 35.9159 53.8867C35.6581 54.1287 35.3141 54.2618 34.9493 54.2618H26.6518C26.2863 54.2618 25.943 54.1287 25.6846 53.8867C25.4262 53.6447 25.284 53.3233 25.284 52.9811Z" fill="black"/>
</svg>
