<svg xmlns="http://www.w3.org/2000/svg" width="100%" height="100%" viewBox="0 0 32 32" fill="none"><path fill="#F8B22F" d="M13.04 20.86c0 1.3 1.14 2.36 2.55 2.36s2.56-1.05 2.56-2.37v-1.7c0-.11.07-.2.18-.24 3.35-1.06 5.67-4 5.67-7.35v-1.25c0-4.24-3.69-7.78-8.23-7.86a8.74 8.74 0 0 0-6.06 2.2 7.45 7.45 0 0 0-2.53 5.56c0 1.31 1.16 2.37 2.57 2.37s2.56-1.06 2.56-2.36c0-.82.35-1.6.98-2.17a3.4 3.4 0 0 1 2.38-.88 3.24 3.24 0 0 1 3.22 3.15v1.24a3.11 3.11 0 0 1-2.68 3 3.67 3.67 0 0 0-3.17 3.51v2.8ZM15.5 30a2.5 2.5 0 1 0 0-5 2.5 2.5 0 0 0 0 5Z"/></svg>