<svg xmlns="http://www.w3.org/2000/svg" width="100%" height="100%" viewBox="0 0 32 32"><path fill="#F9C23C" d="M10.52 7.05a1.17 1.17 0 0 1-.64-.63l-.95-2.16c-.18-.35-.69-.35-.86 0l-.95 2.16a1.28 1.28 0 0 1-.64.63l-1.21.53a.46.46 0 0 0 0 .83l1.21.53c.3.12.52.35.64.63l.95 2.17c.18.35.7.35.86 0l.95-2.17c.13-.28.36-.5.64-.63l1.21-.53a.46.46 0 0 0 0-.83zm15.05 6.5a3.73 3.73 0 0 1-1.92-1.97L20.8 4.8a1.43 1.43 0 0 0-2.58 0l-2.86 6.77a3.8 3.8 0 0 1-1.92 1.97L9.8 15.2a1.46 1.46 0 0 0 0 2.62l3.63 1.64a3.74 3.74 0 0 1 1.92 1.97l2.86 6.77a1.43 1.43 0 0 0 2.58 0l2.86-6.77a3.8 3.8 0 0 1 1.92-1.98l3.63-1.64a1.46 1.46 0 0 0 0-2.6zM8.28 20.34c.16.4.45.7.82.87l1.55.73a.65.65 0 0 1 0 1.14l-1.55.73a1.7 1.7 0 0 0-.82.87l-1.23 2.98a.61.61 0 0 1-1.1 0l-1.23-2.98a1.66 1.66 0 0 0-.82-.87l-1.55-.73a.65.65 0 0 1 0-1.14l1.55-.73c.37-.17.66-.49.82-.87l1.23-2.98a.61.61 0 0 1 1.1 0z"/></svg>